<?xml version="1.0" encoding="iso-8859-1"?>
<!-- Uploaded to: SVG Repo, www.svgrepo.com, Generator: SVG Repo Mixer Tools -->
<svg height="800px" width="800px" version="1.1" id="Layer_1" xmlns="http://www.w3.org/2000/svg" xmlns:xlink="http://www.w3.org/1999/xlink" 
	 viewBox="0 0 512.002 512.002" xml:space="preserve">
<g>
	<path style="fill:#8CB7E8;" d="M426.316,480.97c8.465,0,16.63-4.636,20.745-12.694l15.845-31.03
		c5.846-11.447,1.305-25.465-10.144-31.311c-11.441-5.844-25.462-1.305-31.311,10.142l-15.845,31.03
		c-5.844,11.447-1.305,25.465,10.144,31.311C419.141,480.151,422.756,480.97,426.316,480.97z"/>
	<path style="fill:#8CB7E8;" d="M307.481,512c8.466,0,16.63-4.636,20.745-12.694l15.844-31.03
		c5.846-11.448,1.303-25.466-10.144-31.311c-11.445-5.844-25.466-1.305-31.311,10.144l-15.844,31.03
		c-5.846,11.447-1.303,25.465,10.144,31.311C300.305,511.181,303.919,512,307.481,512z"/>
	<path style="fill:#8CB7E8;" d="M96.249,436.967c-11.444-5.844-25.462-1.305-31.311,10.142l-15.845,31.03
		c-5.846,11.447-1.305,25.465,10.144,31.311c3.39,1.731,7.003,2.552,10.566,2.552c8.465,0,16.63-4.636,20.745-12.694l15.845-31.03
		C112.239,456.829,107.698,442.811,96.249,436.967z"/>
	<path style="fill:#8CB7E8;" d="M188.641,480.97c8.465,0,16.63-4.636,20.745-12.694l15.845-31.03
		c5.846-11.447,1.305-25.465-10.144-31.311c-11.444-5.844-25.462-1.305-31.311,10.142l-15.845,31.03
		c-5.844,11.447-1.305,25.465,10.144,31.311C181.465,480.151,185.079,480.97,188.641,480.97z"/>
</g>
<path style="fill:#C7DBF2;" d="M240.486,0C161.47,0,96.778,62.497,93.246,140.657c-52.639,7.481-93.242,52.849-93.242,107.522
	c0,59.885,48.719,108.605,108.605,108.605h147.392V0.832C250.889,0.295,245.716,0,240.486,0z"/>
<path style="fill:#D4E3F4;" d="M380.12,93.029h-2.586C357.431,42.207,310.558,6.567,256.001,0.832v355.952h124.12
	c72.717,0,131.877-59.16,131.877-131.877C511.998,152.189,452.838,93.029,380.12,93.029z"/>
</svg>